<?xml version="1.0" encoding="utf-8"?>
<!-- Generator: Adobe Illustrator 22.0.1, SVG Export Plug-In . SVG Version: 6.00 Build 0)  -->
<svg version="1.1" id="Calque_1" xmlns="http://www.w3.org/2000/svg" xmlns:xlink="http://www.w3.org/1999/xlink" x="0px" y="0px"
	 viewBox="0 0 94.5 17.2" style="enable-background:new 0 0 94.5 17.2;" xml:space="preserve">
<style type="text/css">
	.st0{fill:#1874B3;}
	.st1{fill:#D8E8CF;}
	.st2{fill:#F9CD00;}
	.st3{fill:#F4B8C7;}
	.st4{fill:#EB5A44;}
</style>
<g>
	<path class="st0" d="M11.3,14.4h-1.2L5.4,7.1v7.2H4.2V5.2h1.2l4.8,7.2V5.2h1.2V14.4z"/>
	<path class="st1" d="M14.4,7.2v7.1h-1.2V7.2H14.4z"/>
	<path class="st2" d="M22,7.9c0.5,0.5,0.8,1.3,0.8,2.3v4.1h-1.2v-4c0-0.7-0.2-1.3-0.5-1.6c-0.4-0.4-0.9-0.6-1.5-0.6
		c-0.6,0-1.2,0.2-1.6,0.6c-0.4,0.4-0.6,1-0.6,1.8v3.8h-1.2V7.2h1.2v1.7c0.2-0.6,0.5-1,1-1.3c0.5-0.3,1-0.5,1.6-0.5
		C20.8,7.1,21.5,7.4,22,7.9z"/>
	<path class="st3" d="M29.3,7.7c0.5,0.3,0.8,0.8,1,1.4V7.2h1.2v7.1h-1.2v-1.8c-0.2,0.6-0.5,1-1,1.4c-0.5,0.3-1.1,0.5-1.8,0.5
		c-0.6,0-1.2-0.1-1.7-0.4c-0.5-0.3-0.9-0.7-1.2-1.3c-0.3-0.5-0.4-1.2-0.4-1.9c0-0.7,0.1-1.4,0.4-1.9c0.3-0.6,0.7-1,1.2-1.3
		c0.5-0.3,1.1-0.4,1.7-0.4C28.2,7.1,28.8,7.3,29.3,7.7z M26.1,8.9c-0.4,0.5-0.7,1.1-0.7,1.9c0,0.8,0.2,1.5,0.7,1.9
		c0.4,0.5,1,0.7,1.7,0.7c0.5,0,0.9-0.1,1.3-0.3c0.4-0.2,0.7-0.5,0.9-0.9c0.2-0.4,0.3-0.9,0.3-1.4c0-0.5-0.1-1-0.3-1.4
		c-0.2-0.4-0.5-0.7-0.9-0.9c-0.4-0.2-0.8-0.3-1.3-0.3C27.1,8.2,26.6,8.4,26.1,8.9z"/>
	<path d="M42.1,13.2c-0.2,0.4-0.5,0.7-0.9,0.9c-0.4,0.2-0.9,0.4-1.6,0.4c-0.6,0-1.1-0.1-1.6-0.3c-0.5-0.2-0.8-0.5-1.1-0.9
		c-0.3-0.4-0.4-0.8-0.5-1.3h1.3c0,0.3,0.1,0.5,0.3,0.8c0.2,0.2,0.4,0.5,0.6,0.6c0.3,0.2,0.6,0.2,1,0.2c0.5,0,0.9-0.1,1.2-0.4
		c0.3-0.3,0.4-0.6,0.4-1.1c0-0.4-0.1-0.7-0.3-0.9c-0.2-0.2-0.4-0.4-0.7-0.6c-0.3-0.1-0.7-0.3-1.2-0.4c-0.6-0.2-1-0.4-1.4-0.5
		c-0.4-0.2-0.6-0.4-0.9-0.8c-0.2-0.3-0.4-0.8-0.4-1.3c0-0.5,0.1-0.9,0.3-1.3c0.2-0.4,0.6-0.6,1-0.8c0.4-0.2,0.9-0.3,1.5-0.3
		c0.9,0,1.6,0.2,2.1,0.7c0.5,0.4,0.8,1,0.9,1.7h-1.3c-0.1-0.4-0.3-0.7-0.6-1C40,6.2,39.6,6,39.1,6c-0.5,0-0.9,0.1-1.1,0.4
		c-0.3,0.2-0.4,0.6-0.4,1c0,0.4,0.1,0.6,0.3,0.9c0.2,0.2,0.4,0.4,0.7,0.5c0.3,0.1,0.7,0.3,1.1,0.4c0.6,0.2,1.1,0.4,1.4,0.5
		c0.4,0.2,0.7,0.4,0.9,0.8c0.3,0.4,0.4,0.8,0.4,1.4C42.4,12.4,42.3,12.8,42.1,13.2z"/>
	<path d="M50.5,11h-5.7c0,0.8,0.3,1.4,0.7,1.8c0.4,0.4,1,0.6,1.6,0.6c0.6,0,1-0.1,1.4-0.4c0.4-0.3,0.6-0.7,0.7-1.2h1.3
		c-0.1,0.5-0.3,0.9-0.6,1.3c-0.3,0.4-0.7,0.7-1.2,0.9c-0.5,0.2-1,0.3-1.6,0.3c-0.7,0-1.3-0.1-1.8-0.4c-0.5-0.3-0.9-0.7-1.2-1.3
		c-0.3-0.5-0.4-1.2-0.4-1.9c0-0.7,0.1-1.4,0.4-1.9c0.3-0.6,0.7-1,1.2-1.3c0.5-0.3,1.1-0.4,1.8-0.4c0.7,0,1.3,0.1,1.8,0.4
		c0.5,0.3,0.9,0.7,1.2,1.2c0.3,0.5,0.4,1,0.4,1.6C50.5,10.6,50.5,10.9,50.5,11z M49.1,9.1c-0.2-0.4-0.5-0.6-0.8-0.8
		c-0.3-0.2-0.7-0.3-1.1-0.3c-0.6,0-1.2,0.2-1.6,0.6c-0.4,0.4-0.7,1-0.7,1.8h4.6C49.3,9.9,49.2,9.5,49.1,9.1z"/>
	<path d="M54.3,7.5c0.4-0.3,1-0.4,1.6-0.4v1.3h-0.4c-0.7,0-1.2,0.2-1.6,0.5c-0.4,0.3-0.6,0.9-0.6,1.7v3.8h-1.2V7.2h1.2v1.4
		C53.5,8.2,53.8,7.8,54.3,7.5z"/>
	<path d="M61.7,7.7c0.5,0.3,0.8,0.8,1,1.4V7.2h1.2v7.1h-1.2v-1.8c-0.2,0.6-0.5,1-1,1.4c-0.5,0.3-1.1,0.5-1.8,0.5
		c-0.6,0-1.2-0.1-1.7-0.4c-0.5-0.3-0.9-0.7-1.2-1.3c-0.3-0.5-0.4-1.2-0.4-1.9c0-0.7,0.1-1.4,0.4-1.9c0.3-0.6,0.7-1,1.2-1.3
		c0.5-0.3,1.1-0.4,1.7-0.4C60.7,7.1,61.2,7.3,61.7,7.7z M58.5,8.9c-0.4,0.5-0.7,1.1-0.7,1.9c0,0.8,0.2,1.5,0.7,1.9
		c0.4,0.5,1,0.7,1.7,0.7c0.5,0,0.9-0.1,1.3-0.3c0.4-0.2,0.7-0.5,0.9-0.9c0.2-0.4,0.3-0.9,0.3-1.4c0-0.5-0.1-1-0.3-1.4
		c-0.2-0.4-0.5-0.7-0.9-0.9c-0.4-0.2-0.8-0.3-1.3-0.3C59.6,8.2,59,8.4,58.5,8.9z"/>
	<path d="M71.4,7.6c0.5,0.3,0.9,0.7,1.2,1.3c0.3,0.6,0.4,1.2,0.4,1.9c0,0.7-0.1,1.4-0.4,1.9c-0.3,0.5-0.7,1-1.2,1.3
		c-0.5,0.3-1.1,0.4-1.7,0.4c-0.7,0-1.3-0.2-1.8-0.5c-0.5-0.4-0.8-0.8-1-1.4v5.2h-1.2V7.2H67V9c0.2-0.6,0.5-1,1-1.4
		c0.5-0.4,1.1-0.5,1.8-0.5C70.4,7.1,70.9,7.3,71.4,7.6z M68.1,8.5c-0.4,0.2-0.7,0.5-0.9,0.9c-0.2,0.4-0.3,0.9-0.3,1.4
		c0,0.5,0.1,1,0.3,1.4c0.2,0.4,0.5,0.7,0.9,0.9c0.4,0.2,0.8,0.3,1.2,0.3c0.7,0,1.3-0.2,1.8-0.7c0.4-0.5,0.7-1.1,0.7-1.9
		c0-0.8-0.2-1.5-0.7-1.9c-0.4-0.5-1-0.7-1.8-0.7C68.9,8.2,68.5,8.3,68.1,8.5z"/>
	<path d="M80.3,7.9c0.5,0.5,0.8,1.3,0.8,2.3v4.1h-1.2v-4c0-0.7-0.2-1.3-0.5-1.6c-0.4-0.4-0.9-0.6-1.5-0.6c-0.6,0-1.2,0.2-1.6,0.6
		c-0.4,0.4-0.6,1-0.6,1.8v3.8h-1.2V4.7h1.2v4.2c0.2-0.6,0.5-1,1-1.3s1-0.5,1.6-0.5C79.1,7.1,79.8,7.4,80.3,7.9z"/>
	<path d="M82.9,4.6c0.1-0.1,0.3-0.2,0.6-0.2s0.4,0.1,0.6,0.2c0.1,0.1,0.2,0.3,0.2,0.5c0,0.2-0.1,0.4-0.2,0.5
		c-0.1,0.1-0.3,0.2-0.6,0.2s-0.4-0.1-0.6-0.2c-0.1-0.1-0.2-0.3-0.2-0.5C82.7,4.9,82.8,4.7,82.9,4.6z M84.1,7.2v7.1h-1.2V7.2H84.1z"
		/>
	<path d="M91.7,7.9c0.5,0.5,0.8,1.3,0.8,2.3v4.1h-1.2v-4c0-0.7-0.2-1.3-0.5-1.6c-0.4-0.4-0.9-0.6-1.5-0.6c-0.6,0-1.2,0.2-1.6,0.6
		c-0.4,0.4-0.6,1-0.6,1.8v3.8H86V7.2h1.2v1.7c0.2-0.6,0.5-1,1-1.3s1-0.5,1.6-0.5C90.6,7.1,91.2,7.4,91.7,7.9z"/>
	<ellipse class="st4" cx="13.8" cy="5.1" rx="0.8" ry="0.8"/>
</g>
<g>
	<path class="st0" d="M43-58.1h-6.4L10.6-97.5v39.5H4.2v-50h6.4l25.9,39.5V-108H43V-58.1z"/>
	<path class="st1" d="M59.8-97v38.9h-6.4V-97H59.8z"/>
	<path class="st2" d="M101.6-93.2c2.8,2.9,4.2,7.1,4.2,12.6v22.6h-6.4v-22c0-3.9-1-6.8-3-8.9c-2-2.1-4.7-3.1-8.1-3.1
		c-3.5,0-6.4,1.1-8.5,3.4c-2.1,2.3-3.2,5.6-3.2,10v20.6h-6.4V-97h6.4v9.2c1-3.2,2.8-5.6,5.3-7.3c2.5-1.7,5.4-2.6,8.8-2.6
		C95.2-97.6,98.8-96.1,101.6-93.2z"/>
	<path class="st3" d="M141.3-94.6c2.6,1.9,4.5,4.4,5.5,7.6V-97h6.4v38.9h-6.4V-68c-1,3.2-2.9,5.7-5.5,7.6c-2.6,1.9-5.8,2.8-9.6,2.8
		c-3.4,0-6.5-0.8-9.2-2.4c-2.7-1.6-4.8-3.9-6.3-6.9c-1.5-3-2.3-6.5-2.3-10.6c0-4.1,0.8-7.6,2.3-10.6c1.5-3,3.6-5.3,6.3-6.9
		c2.7-1.6,5.8-2.4,9.2-2.4C135.4-97.5,138.6-96.5,141.3-94.6z M124-87.9c-2.4,2.5-3.6,6-3.6,10.5c0,4.4,1.2,7.9,3.6,10.5
		c2.4,2.5,5.6,3.8,9.5,3.8c2.6,0,4.8-0.6,6.8-1.8c2-1.2,3.6-2.8,4.7-5c1.1-2.1,1.7-4.6,1.7-7.5c0-2.8-0.6-5.3-1.7-7.5
		c-1.1-2.2-2.7-3.8-4.7-5c-2-1.2-4.3-1.7-6.8-1.7C129.5-91.7,126.4-90.5,124-87.9z"/>
	<path d="M210.9-64.4c-1.1,2-2.9,3.7-5.2,5c-2.3,1.3-5.2,1.9-8.6,1.9c-3.3,0-6.2-0.6-8.8-1.8c-2.6-1.2-4.6-2.9-6.2-5
		c-1.5-2.1-2.4-4.5-2.7-7.2h6.9c0.1,1.4,0.6,2.8,1.5,4.1c0.8,1.3,2,2.5,3.5,3.3c1.5,0.9,3.4,1.3,5.6,1.3c2.8,0,5-0.8,6.5-2.3
		c1.5-1.5,2.3-3.4,2.3-5.8c0-2-0.5-3.7-1.6-5c-1.1-1.3-2.4-2.3-3.9-3c-1.6-0.7-3.7-1.5-6.4-2.4c-3.2-1-5.7-2-7.6-2.9
		c-1.9-0.9-3.5-2.3-4.9-4.1c-1.3-1.8-2-4.3-2-7.3c0-2.6,0.6-4.9,1.9-6.9c1.3-2,3-3.5,5.4-4.6c2.3-1.1,5.1-1.6,8.3-1.6
		c4.9,0,8.8,1.2,11.7,3.6c2.9,2.4,4.6,5.4,5,9.1h-6.9c-0.4-2-1.4-3.7-3-5.2c-1.7-1.5-3.9-2.3-6.7-2.3c-2.6,0-4.7,0.7-6.2,2
		c-1.6,1.3-2.3,3.2-2.3,5.7c0,1.9,0.5,3.5,1.5,4.7c1,1.2,2.3,2.2,3.8,2.8c1.5,0.7,3.6,1.5,6.2,2.3c3.2,1,5.8,2,7.8,3
		c2,0.9,3.6,2.4,5,4.3c1.4,1.9,2.1,4.5,2.1,7.6C212.6-68.7,212-66.5,210.9-64.4z"/>
	<path d="M256.7-76.1h-31.1c0.1,4.4,1.4,7.8,3.8,10c2.4,2.2,5.3,3.3,8.8,3.3c3.1,0,5.7-0.8,7.8-2.4c2.1-1.6,3.4-3.7,3.9-6.3h6.9
		c-0.5,2.7-1.5,5.1-3.2,7.2s-3.7,3.8-6.3,5c-2.6,1.2-5.5,1.8-8.8,1.8c-3.7,0-7-0.8-9.9-2.4c-2.9-1.6-5.1-3.9-6.8-6.9
		c-1.6-3-2.4-6.5-2.4-10.6c0-4.1,0.8-7.6,2.4-10.6c1.6-3,3.9-5.3,6.8-6.9c2.9-1.6,6.2-2.4,9.9-2.4c3.8,0,7.1,0.8,9.9,2.4
		c2.8,1.6,5,3.8,6.4,6.4c1.5,2.7,2.2,5.7,2.2,8.9C257-78.3,256.9-77.1,256.7-76.1z M249.1-86.5c-1.1-1.9-2.6-3.4-4.5-4.3
		c-1.9-0.9-3.9-1.4-6.2-1.4c-3.5,0-6.5,1.1-8.9,3.3c-2.4,2.2-3.7,5.4-3.9,9.7h24.9C250.6-82.1,250.2-84.5,249.1-86.5z"/>
	<path d="M277.5-95.4c2.5-1.5,5.4-2.2,8.8-2.2v7h-2c-3.6,0-6.6,0.9-8.9,2.8c-2.3,1.9-3.5,4.9-3.5,9.2v20.5h-6.4V-97h6.4v7.9
		C273.2-91.8,275-93.9,277.5-95.4z"/>
	<path d="M318.2-94.6c2.6,1.9,4.5,4.4,5.5,7.6V-97h6.4v38.9h-6.4V-68c-1,3.2-2.9,5.7-5.5,7.6c-2.6,1.9-5.8,2.8-9.6,2.8
		c-3.4,0-6.5-0.8-9.2-2.4c-2.7-1.6-4.8-3.9-6.3-6.9c-1.5-3-2.3-6.5-2.3-10.6c0-4.1,0.8-7.6,2.3-10.6c1.5-3,3.6-5.3,6.3-6.9
		c2.7-1.6,5.8-2.4,9.2-2.4C312.4-97.5,315.6-96.5,318.2-94.6z M300.9-87.9c-2.4,2.5-3.6,6-3.6,10.5c0,4.4,1.2,7.9,3.6,10.5
		c2.4,2.5,5.6,3.8,9.5,3.8c2.6,0,4.8-0.6,6.8-1.8c2-1.2,3.6-2.8,4.7-5c1.1-2.1,1.7-4.6,1.7-7.5c0-2.8-0.6-5.3-1.7-7.5
		c-1.1-2.2-2.7-3.8-4.7-5c-2-1.2-4.3-1.7-6.8-1.7C306.5-91.7,303.3-90.5,300.9-87.9z"/>
	<path d="M371.1-95.1c2.7,1.6,4.8,3.9,6.3,6.9c1.5,3,2.3,6.6,2.3,10.6c0,4.1-0.8,7.6-2.3,10.6c-1.5,3-3.7,5.3-6.3,6.9
		c-2.7,1.6-5.8,2.4-9.2,2.4c-3.8,0-7-1-9.6-2.9c-2.6-1.9-4.4-4.4-5.4-7.5v28.3h-6.4V-97h6.4v9.9c1-3.1,2.8-5.6,5.4-7.5
		c2.6-1.9,5.8-2.9,9.6-2.9C365.3-97.5,368.4-96.7,371.1-95.1z M353.3-90c-2,1.2-3.6,2.8-4.7,5c-1.1,2.2-1.7,4.7-1.7,7.5
		c0,2.8,0.6,5.3,1.7,7.5c1.1,2.2,2.7,3.8,4.7,5c2,1.2,4.3,1.8,6.8,1.8c4,0,7.2-1.3,9.6-3.8c2.4-2.5,3.6-6,3.6-10.5
		c0-4.4-1.2-7.9-3.6-10.5c-2.4-2.5-5.6-3.8-9.6-3.8C357.6-91.7,355.3-91.1,353.3-90z"/>
	<path d="M419.7-93.2c2.8,2.9,4.2,7.1,4.2,12.6v22.6h-6.4v-22c0-3.9-1-6.8-3-8.9c-2-2.1-4.7-3.1-8.1-3.1c-3.5,0-6.4,1.1-8.5,3.4
		c-2.1,2.3-3.2,5.6-3.2,10v20.6h-6.4v-52.4h6.4v22.7c1-3.2,2.8-5.6,5.3-7.3s5.4-2.6,8.8-2.6C413.2-97.6,416.9-96.1,419.7-93.2z"/>
	<path d="M433.8-111.2c0.8-0.7,1.9-1.1,3.2-1.1s2.4,0.4,3.2,1.1c0.8,0.7,1.2,1.7,1.2,2.9c0,1.2-0.4,2.1-1.2,2.9
		c-0.8,0.7-1.9,1.1-3.2,1.1s-2.4-0.4-3.2-1.1c-0.8-0.7-1.2-1.7-1.2-2.9C432.6-109.6,433-110.5,433.8-111.2z M440.2-97v38.9h-6.4V-97
		H440.2z"/>
	<path d="M482-93.2c2.8,2.9,4.2,7.1,4.2,12.6v22.6h-6.4v-22c0-3.9-1-6.8-3-8.9c-2-2.1-4.7-3.1-8.1-3.1c-3.5,0-6.4,1.1-8.5,3.4
		c-2.1,2.3-3.2,5.6-3.2,10v20.6h-6.4V-97h6.4v9.2c1-3.2,2.8-5.6,5.3-7.3s5.4-2.6,8.8-2.6C475.6-97.6,479.2-96.1,482-93.2z"/>
	<ellipse class="st4" cx="56.6" cy="-108.4" rx="4.6" ry="4.3"/>
</g>
<g>
</g>
<g>
</g>
<g>
</g>
<g>
</g>
<g>
</g>
<g>
</g>
</svg>
