<?xml version="1.0" encoding="utf-8"?>
<!-- Generator: Adobe Illustrator 22.0.1, SVG Export Plug-In . SVG Version: 6.00 Build 0)  -->
<svg version="1.1" id="Calque_1" xmlns="http://www.w3.org/2000/svg" xmlns:xlink="http://www.w3.org/1999/xlink" x="0px" y="0px"
	 viewBox="0 0 94.5 17.2" style="enable-background:new 0 0 94.5 17.2;" xml:space="preserve">
<style type="text/css">
	.st0{fill:#1874B3;}
	.st1{fill:#D8E8CF;}
	.st2{fill:#F9CD00;}
	.st3{fill:#F4B8C7;}
	.st4{fill:#EB5A44;}
</style>
<g>
	<path class="st0" d="M11.3,14.4h-1.2L5.4,7.1v7.2H4.2V5.2h1.2l4.8,7.2V5.2h1.2V14.4z"/>
	<path class="st1" d="M14.4,7.2v7.1h-1.2V7.2H14.4z"/>
	<path class="st2" d="M22,7.9c0.5,0.5,0.8,1.3,0.8,2.3v4.1h-1.2v-4c0-0.7-0.2-1.3-0.5-1.6c-0.4-0.4-0.9-0.6-1.5-0.6
		c-0.6,0-1.2,0.2-1.6,0.6c-0.4,0.4-0.6,1-0.6,1.8v3.8h-1.2V7.2h1.2v1.7c0.2-0.6,0.5-1,1-1.3c0.5-0.3,1-0.5,1.6-0.5
		C20.8,7.1,21.5,7.4,22,7.9z"/>
	<path class="st3" d="M29.3,7.7c0.5,0.3,0.8,0.8,1,1.4V7.2h1.2v7.1h-1.2v-1.8c-0.2,0.6-0.5,1-1,1.4c-0.5,0.3-1.1,0.5-1.8,0.5
		c-0.6,0-1.2-0.1-1.7-0.4c-0.5-0.3-0.9-0.7-1.2-1.3c-0.3-0.5-0.4-1.2-0.4-1.9c0-0.7,0.1-1.4,0.4-1.9c0.3-0.6,0.7-1,1.2-1.3
		c0.5-0.3,1.1-0.4,1.7-0.4C28.2,7.1,28.8,7.3,29.3,7.7z M26.1,8.9c-0.4,0.5-0.7,1.1-0.7,1.9c0,0.8,0.2,1.5,0.7,1.9
		c0.4,0.5,1,0.7,1.7,0.7c0.5,0,0.9-0.1,1.3-0.3c0.4-0.2,0.7-0.5,0.9-0.9c0.2-0.4,0.3-0.9,0.3-1.4c0-0.5-0.1-1-0.3-1.4
		c-0.2-0.4-0.5-0.7-0.9-0.9c-0.4-0.2-0.8-0.3-1.3-0.3C27.1,8.2,26.6,8.4,26.1,8.9z"/>
	<path d="M42.1,13.2c-0.2,0.4-0.5,0.7-0.9,0.9c-0.4,0.2-0.9,0.4-1.6,0.4c-0.6,0-1.1-0.1-1.6-0.3c-0.5-0.2-0.8-0.5-1.1-0.9
		c-0.3-0.4-0.4-0.8-0.5-1.3h1.3c0,0.3,0.1,0.5,0.3,0.8c0.2,0.2,0.4,0.5,0.6,0.6c0.3,0.2,0.6,0.2,1,0.2c0.5,0,0.9-0.1,1.2-0.4
		c0.3-0.3,0.4-0.6,0.4-1.1c0-0.4-0.1-0.7-0.3-0.9c-0.2-0.2-0.4-0.4-0.7-0.6c-0.3-0.1-0.7-0.3-1.2-0.4c-0.6-0.2-1-0.4-1.4-0.5
		c-0.4-0.2-0.6-0.4-0.9-0.8c-0.2-0.3-0.4-0.8-0.4-1.3c0-0.5,0.1-0.9,0.3-1.3c0.2-0.4,0.6-0.6,1-0.8c0.4-0.2,0.9-0.3,1.5-0.3
		c0.9,0,1.6,0.2,2.1,0.7c0.5,0.4,0.8,1,0.9,1.7h-1.3c-0.1-0.4-0.3-0.7-0.6-1C40,6.2,39.6,6,39.1,6c-0.5,0-0.9,0.1-1.1,0.4
		c-0.3,0.2-0.4,0.6-0.4,1c0,0.4,0.1,0.6,0.3,0.9c0.2,0.2,0.4,0.4,0.7,0.5c0.3,0.1,0.7,0.3,1.1,0.4c0.6,0.2,1.1,0.4,1.4,0.5
		c0.4,0.2,0.7,0.4,0.9,0.8c0.3,0.4,0.4,0.8,0.4,1.4C42.4,12.4,42.3,12.8,42.1,13.2z"/>
	<path d="M50.5,11h-5.7c0,0.8,0.3,1.4,0.7,1.8c0.4,0.4,1,0.6,1.6,0.6c0.6,0,1-0.1,1.4-0.4c0.4-0.3,0.6-0.7,0.7-1.2h1.3
		c-0.1,0.5-0.3,0.9-0.6,1.3c-0.3,0.4-0.7,0.7-1.2,0.9c-0.5,0.2-1,0.3-1.6,0.3c-0.7,0-1.3-0.1-1.8-0.4c-0.5-0.3-0.9-0.7-1.2-1.3
		c-0.3-0.5-0.4-1.2-0.4-1.9c0-0.7,0.1-1.4,0.4-1.9c0.3-0.6,0.7-1,1.2-1.3c0.5-0.3,1.1-0.4,1.8-0.4c0.7,0,1.3,0.1,1.8,0.4
		c0.5,0.3,0.9,0.7,1.2,1.2c0.3,0.5,0.4,1,0.4,1.6C50.5,10.6,50.5,10.9,50.5,11z M49.1,9.1c-0.2-0.4-0.5-0.6-0.8-0.8
		c-0.3-0.2-0.7-0.3-1.1-0.3c-0.6,0-1.2,0.2-1.6,0.6c-0.4,0.4-0.7,1-0.7,1.8h4.6C49.3,9.9,49.2,9.5,49.1,9.1z"/>
	<path d="M54.3,7.5c0.4-0.3,1-0.4,1.6-0.4v1.3h-0.4c-0.7,0-1.2,0.2-1.6,0.5c-0.4,0.3-0.6,0.9-0.6,1.7v3.8h-1.2V7.2h1.2v1.4
		C53.5,8.2,53.8,7.8,54.3,7.5z"/>
	<path d="M61.7,7.7c0.5,0.3,0.8,0.8,1,1.4V7.2h1.2v7.1h-1.2v-1.8c-0.2,0.6-0.5,1-1,1.4c-0.5,0.3-1.1,0.5-1.8,0.5
		c-0.6,0-1.2-0.1-1.7-0.4c-0.5-0.3-0.9-0.7-1.2-1.3c-0.3-0.5-0.4-1.2-0.4-1.9c0-0.7,0.1-1.4,0.4-1.9c0.3-0.6,0.7-1,1.2-1.3
		c0.5-0.3,1.1-0.4,1.7-0.4C60.7,7.1,61.2,7.3,61.7,7.7z M58.5,8.9c-0.4,0.5-0.7,1.1-0.7,1.9c0,0.8,0.2,1.5,0.7,1.9
		c0.4,0.5,1,0.7,1.7,0.7c0.5,0,0.9-0.1,1.3-0.3c0.4-0.2,0.7-0.5,0.9-0.9c0.2-0.4,0.3-0.9,0.3-1.4c0-0.5-0.1-1-0.3-1.4
		c-0.2-0.4-0.5-0.7-0.9-0.9c-0.4-0.2-0.8-0.3-1.3-0.3C59.6,8.2,59,8.4,58.5,8.9z"/>
	<path d="M71.4,7.6c0.5,0.3,0.9,0.7,1.2,1.3c0.3,0.6,0.4,1.2,0.4,1.9c0,0.7-0.1,1.4-0.4,1.9c-0.3,0.5-0.7,1-1.2,1.3
		c-0.5,0.3-1.1,0.4-1.7,0.4c-0.7,0-1.3-0.2-1.8-0.5c-0.5-0.4-0.8-0.8-1-1.4v5.2h-1.2V7.2H67V9c0.2-0.6,0.5-1,1-1.4
		c0.5-0.4,1.1-0.5,1.8-0.5C70.4,7.1,70.9,7.3,71.4,7.6z M68.1,8.5c-0.4,0.2-0.7,0.5-0.9,0.9c-0.2,0.4-0.3,0.9-0.3,1.4
		c0,0.5,0.1,1,0.3,1.4c0.2,0.4,0.5,0.7,0.9,0.9c0.4,0.2,0.8,0.3,1.2,0.3c0.7,0,1.3-0.2,1.8-0.7c0.4-0.5,0.7-1.1,0.7-1.9
		c0-0.8-0.2-1.5-0.7-1.9c-0.4-0.5-1-0.7-1.8-0.7C68.9,8.2,68.5,8.3,68.1,8.5z"/>
	<path d="M80.3,7.9c0.5,0.5,0.8,1.3,0.8,2.3v4.1h-1.2v-4c0-0.7-0.2-1.3-0.5-1.6c-0.4-0.4-0.9-0.6-1.5-0.6c-0.6,0-1.2,0.2-1.6,0.6
		c-0.4,0.4-0.6,1-0.6,1.8v3.8h-1.2V4.7h1.2v4.2c0.2-0.6,0.5-1,1-1.3s1-0.5,1.6-0.5C79.1,7.1,79.8,7.4,80.3,7.9z"/>
	<path d="M82.9,4.6c0.1-0.1,0.3-0.2,0.6-0.2s0.4,0.1,0.6,0.2c0.1,0.1,0.2,0.3,0.2,0.5c0,0.2-0.1,0.4-0.2,0.5
		c-0.1,0.1-0.3,0.2-0.6,0.2s-0.4-0.1-0.6-0.2c-0.1-0.1-0.2-0.3-0.2-0.5C82.7,4.9,82.8,4.7,82.9,4.6z M84.1,7.2v7.1h-1.2V7.2H84.1z"
		/>
	<path d="M91.7,7.9c0.5,0.5,0.8,1.3,0.8,2.3v4.1h-1.2v-4c0-0.7-0.2-1.3-0.5-1.6c-0.4-0.4-0.9-0.6-1.5-0.6c-0.6,0-1.2,0.2-1.6,0.6
		c-0.4,0.4-0.6,1-0.6,1.8v3.8H86V7.2h1.2v1.7c0.2-0.6,0.5-1,1-1.3s1-0.5,1.6-0.5C90.6,7.1,91.2,7.4,91.7,7.9z"/>
	<ellipse class="st4" cx="13.8" cy="5.1" rx="0.8" ry="0.8"/>
</g>
</svg>
