<?xml version="1.0" encoding="utf-8"?>
<!-- Generator: Adobe Illustrator 22.0.1, SVG Export Plug-In . SVG Version: 6.00 Build 0)  -->
<svg version="1.1" xmlns="http://www.w3.org/2000/svg" xmlns:xlink="http://www.w3.org/1999/xlink" x="0px" y="0px"
	 viewBox="0 0 31.1 48.7" style="enable-background:new 0 0 31.1 48.7;" xml:space="preserve">
<style type="text/css">
	.st0{fill:#FF7E37;}
	.st1{fill:#001055;}
	.st2{fill:#77A7A3;}
    .st3{fill:#000000;}
</style>
<g id="Calque_2">
	<g>
		<path class="st1" d="M1.1,3.9v10.4l3.4-3.9C2.4,8.3,1.1,3.9,1.1,3.9z"/>
		<path class="st1" d="M14.5,28.1v10.4l-3.4-3.9C13.3,32.6,14.5,28.1,14.5,28.1z"/>
		<path class="st1" d="M29.9,3.9v10.4l-3.4-3.9C28.7,8.3,29.9,3.9,29.9,3.9z"/>
		<path class="st1" d="M16.5,28.1v10.4l3.4-3.9C17.8,32.6,16.5,28.1,16.5,28.1z"/>
	</g>
	<g>
		<path class="st2" d="M12.6,1.8c0-0.3,0.1-0.5,0.1-0.8H1.6C5,5.6,10.4,5.1,12.3,6c0.9,0.4,1.5,0.9,2,1.4V4.5
			C13.3,4.1,12.6,3,12.6,1.8z"/>
		<path class="st2" d="M3,26.2c0-0.3-0.1-0.5-0.1-0.8H14c-3.4,4.5-8.8,4.1-10.7,5c-0.9,0.4-1.5,0.9-2,1.4v-2.9
			C2.3,28.4,3,27.4,3,26.2z"/>
		<path class="st2" d="M4.6,6c1.9,0.6,1.6,1.4,3.7,1.4s4,1.5,4,1.8C12.3,9.6,4.3,11.2,4.6,6z"/>
		<path class="st2" d="M4.4,12c0,0,0.3-0.9,0.6-1.1s6.6,0.4,4.7,3.4C9.7,14.3,4.4,12,4.4,12z"/>
		<path class="st2" d="M11,30.3c-1.9,0.6-1.6,1.4-3.7,1.4s-4,1.5-4,1.8C3.3,33.8,11.2,35.5,11,30.3z"/>
		<path class="st2" d="M11.2,36.2c0,0-0.3-0.9-0.6-1.1c-0.3-0.2-6.6,0.4-4.7,3.4C5.9,38.6,11.2,36.2,11.2,36.2z"/>
		<path class="st2" d="M2.6,23.5l6.2-4h0.6c0,0,0.1,0.4,0.7,0.7c0.5,0.3,3.9,1.9,3.7,3.3C13.7,23.5,2.6,23.5,2.6,23.5z"/>
		<polygon class="st2" points="1,15.8 1,22.6 8.9,18 9.2,15.4 4.1,13.2 3.1,13.2 		"/>
		<path class="st2" d="M12.7,47.8l-6.2-4H6c0,0-0.1,0.4-0.7,0.7s-3.9,1.9-3.7,3.3C1.7,47.9,12.7,47.8,12.7,47.8z"/>
		<polygon class="st2" points="14.5,40.1 14.5,47 6.7,42.3 6.4,39.8 11.5,37.6 12.5,37.6 		"/>
		<path class="st2" d="M18.5,1.8c0-0.3-0.1-0.5-0.1-0.8h11.1c-3.4,4.5-8.8,4.1-10.7,5c-0.9,0.4-1.5,0.9-2,1.4V4.5
			C17.8,4.1,18.5,3,18.5,1.8z"/>
		<path class="st2" d="M28,26.2c0-0.3,0.1-0.5,0.1-0.8H17.1c3.4,4.5,8.8,4.1,10.7,5c0.9,0.4,1.5,0.9,2,1.4v-2.9
			C28.8,28.4,28,27.4,28,26.2z"/>
		<path class="st2" d="M26.5,6c-1.9,0.6-1.6,1.4-3.7,1.4s-4,1.5-4,1.8C18.8,9.6,26.7,11.2,26.5,6z"/>
		<path class="st2" d="M26.7,12c0,0-0.3-0.9-0.6-1.1c-0.3-0.2-6.6,0.4-4.7,3.4C21.4,14.3,26.7,12,26.7,12z"/>
		<path class="st2" d="M20.1,30.3c1.9,0.6,1.6,1.4,3.7,1.4s4,1.5,4,1.8C27.8,33.8,19.8,35.5,20.1,30.3z"/>
		<path class="st2" d="M19.9,36.2c0,0,0.3-0.9,0.6-1.1c0.3-0.2,6.6,0.4,4.7,3.4C25.2,38.6,19.9,36.2,19.9,36.2z"/>
		<path class="st2" d="M28.4,23.5l-6.2-4h-0.6c0,0-0.1,0.4-0.7,0.7c-0.5,0.3-3.9,1.9-3.7,3.3C17.4,23.5,28.4,23.5,28.4,23.5z"/>
		<polygon class="st2" points="30,15.8 30,22.6 22.2,18 21.8,15.4 27,13.2 28,13.2 		"/>
		<path class="st2" d="M18.3,47.8l6.2-4h0.6c0,0,0.1,0.4,0.7,0.7s3.9,1.9,3.7,3.3C29.4,47.9,18.3,47.8,18.3,47.8z"/>
		<polygon class="st2" points="16.5,40.1 16.5,47 24.4,42.3 24.7,39.8 19.5,37.6 18.6,37.6 		"/>
	</g>
	<g>
		<polygon class="st0" points="17.7,12.6 13.3,12.6 11.1,16.4 13.3,20.2 17.7,20.2 19.9,16.4 		"/>
		<polygon class="st0" points="2.2,36.9 0,36.9 0,44.5 2.2,44.5 4.4,40.7 		"/>
		<polygon class="st0" points="28.9,36.9 31.1,36.9 31.1,44.5 28.9,44.5 26.7,40.7 		"/>
	</g>
	<g>
		<circle class="st3" cx="15.5" cy="1.8" r="1.8"/>
		<path class="st3" d="M0,24.5C0,24.5,0,24.5,0,24.5l0,3.6c0,0,0,0,0,0c1,0,1.8-0.8,1.8-1.8C1.8,25.3,1,24.5,0,24.5z"/>
		<path class="st3" d="M31.1,24.5C31.1,24.5,31.1,24.5,31.1,24.5l0,3.6c0,0,0,0,0,0c-1,0-1.8-0.8-1.8-1.8C29.3,25.3,30.1,24.5,31.1,24.5z"/>
	</g>
</g>
</svg>
