<?xml version="1.0" encoding="utf-8"?>
<!-- Generator: Adobe Illustrator 16.0.0, SVG Export Plug-In . SVG Version: 6.00 Build 0)  -->
<!DOCTYPE svg PUBLIC "-//W3C//DTD SVG 1.1//EN" "http://www.w3.org/Graphics/SVG/1.1/DTD/svg11.dtd">
<svg version="1.1" xmlns="http://www.w3.org/2000/svg" xmlns:xlink="http://www.w3.org/1999/xlink" x="0px" y="0px"
	 width="56.997px" height="47.998px" viewBox="0 0 56.997 47.998" enable-background="new 0 0 56.997 47.998" xml:space="preserve">
<g id="Layer_1" display="none">
</g>
<g id="Calque_3" display="none">
</g>
<g id="Calque_5">
	<path fill="#F23E46" d="M31.423,24.618l-2.854-4.452c0,0-2.372-9.482,6.379-13.487C38.081,10.434,42.532,16.918,31.423,24.618z"/>
	<path fill="#F23E46" d="M30.231,22.759c-0.618,0.545-2.401-0.574-3.016-0.825S12.008,15.032,15.875,9.097
		C19.127,4.104,35.508,18.1,30.231,22.759z"/>
	<path fill="#F23E46" d="M28.276,22.642c0,0-4.384-13.275-11.686-13.607C13.299,8.886,20.208,26.748,28.276,22.642z"/>
	<path fill="#F23E46" d="M29.021,22.152c0,0-13.664,4.429-9.807,11.699c3.858,7.271,2.47-2.789,12.228-9.615L29.021,22.152z"/>
	<path fill="#F23E46" d="M29.631,24.184c-0.068-0.545-17.791,0.625-8.825,17.135C22.662,42.392,30.459,30.797,29.631,24.184z"/>
	<path fill="#F23E46" d="M23.797,38.517c2.542-1.583,6.875,1.583,6.271-5.775c-0.683-8.309,5.158-7.853,0.604-8.18
		S19.505,41.189,23.797,38.517z"/>
	<path fill="#F23E46" d="M30.877,30.02c0,0,12.576,4.444,15.629,2.097c1.053-0.809,0.507-4.608-0.981-6.576
		c-1.486-1.967-5.913-4.214-8.433-6.011C34.571,17.733,26.755,23.734,30.877,30.02z"/>
	<path fill="#BEB8BD" d="M27.711,22.431c0,0,0.483,2.394,2.728,2.172c1.265-0.125,2.214-1.251,1.851-2.985
		C31.538,18.028,28.499,17.048,27.711,22.431z"/>
</g>
<g id="Calque_4">
</g>
</svg>
