<?xml version="1.0" encoding="utf-8"?>
<!-- Generator: Adobe Illustrator 16.0.0, SVG Export Plug-In . SVG Version: 6.00 Build 0)  -->
<!DOCTYPE svg PUBLIC "-//W3C//DTD SVG 1.1//EN" "http://www.w3.org/Graphics/SVG/1.1/DTD/svg11.dtd">
<svg version="1.1" xmlns="http://www.w3.org/2000/svg" xmlns:xlink="http://www.w3.org/1999/xlink" x="0px" y="0px"
	 width="56.997px" height="59.997px" viewBox="0 0 56.997 59.997" enable-background="new 0 0 56.997 59.997" xml:space="preserve">
<g id="Layer_1" display="none">
</g>
<g id="Calque_3">
	<path fill="#F23E46" d="M23.496,29.24c0,0-16.66-2.559-12.803,4.711c3.858,7.271,3.723,6.412,13.48-0.414L23.496,29.24z"/>
	<path fill="#F23E46" d="M37.187,28.003l-2.929-5.543c0,0,0.396-13.199,5.545-10.193C44.952,15.271,48.295,20.303,37.187,28.003z"/>
	<path fill="#F23E46" d="M29.717,22.714l-4.471,0.706c0,0-7.748-11.031-1.972-12.489C29.052,9.471,36.138,8.255,29.717,22.714z"/>
	<path fill="#F23E46" d="M24.803,37.523c0,0-10.42,4.166-5.758,7.395C23.708,48.146,26.556,50.58,24.803,37.523z"/>
	<path fill="#F23E46" d="M23.273,27.313c0,0-2.583-11.309-9.061-7.92C7.736,22.782,3.085,24.701,23.273,27.313z"/>
	<path fill="#F23E46" d="M32.317,49.429c4.961,0.979,10.253,1.023,6.849-6.587c-3.403-7.61-1.507-4.221-6.061-4.548
		S27.356,48.451,32.317,49.429z"/>
	<path fill="#F23E46" d="M38.986,34.04c0,0,5.28,5.002,8.655,3.148c3.374-1.854,0.961-1.362-0.527-3.33
		c-1.486-1.967,0.757-3.547-1.763-5.345C42.829,26.717,34.864,27.754,38.986,34.04z"/>
	<path fill="#BEB8BD" d="M26.246,27.996c0,0-0.837,5.857,4.387,5.473c5.225-0.384,6.536-3.233,2.488-6.558
		C29.072,23.586,28.008,22.432,26.246,27.996z"/>
</g>
</svg>
