<?xml version="1.0" encoding="utf-8"?>
<!-- Generator: Adobe Illustrator 16.0.0, SVG Export Plug-In . SVG Version: 6.00 Build 0)  -->
<!DOCTYPE svg PUBLIC "-//W3C//DTD SVG 1.1//EN" "http://www.w3.org/Graphics/SVG/1.1/DTD/svg11.dtd">
<svg version="1.1" xmlns="http://www.w3.org/2000/svg" xmlns:xlink="http://www.w3.org/1999/xlink" x="0px" y="0px"
	 width="56.997px" height="47.998px" viewBox="0 0 56.997 47.998" enable-background="new 0 0 56.997 47.998" xml:space="preserve">
<g id="Layer_1" display="none">
</g>
<g id="Calque_3">
	<path fill="#F23E46" d="M27.83,20.166c0,0-4.934,5.802-6.079,8.778c-1.182,3.07,4.354-1.269,7.271-5.107L27.83,20.166z"/>
	<path fill="#F23E46" d="M32.291,23.385l-4.579-3.961c0,0,0-9.871,7.237-12.745C38.772,9.097,41.381,19.687,32.291,23.385z"/>
	<path fill="#F23E46" d="M30.85,18.956c0,0-1.864,2.154-2.839,4.097C25.606,27.847,11.647,9.094,15.875,9.097
		C22.337,9.102,33.397,16.805,30.85,18.956z"/>
	<path fill="#F23E46" d="M25.304,22.759c0,0-7.242,8.833-4.498,18.56C26.562,38.967,27.057,35.815,25.304,22.759z"/>
	<path fill="#F23E46" d="M24.643,23.053c0,0-6.166-15.166-9.943-13.948C14.064,9.31,18.252,22.303,24.643,23.053z"/>
	<path fill="#F23E46" d="M23.905,39.525c4.865-2.974,6.385-5.709,6.096-7.223c-0.979-5.126,8.728-1.626-1.147-8.465
		C25.1,21.237,19.59,42.163,23.905,39.525z"/>
	<path fill="#F23E46" d="M31.057,30.171c1.941,1.554,13.34,2.839,15.849,1.639c0.927-4.879-2.59-7.807-4.325-9.48
		c-3.032-2.924-5.184-1.069-5.255-2.904C37.206,16.331,25.186,25.471,31.057,30.171z"/>
	<path fill="#BEB8BD" d="M27.711,21.802c0,0,0.405,3.51,2.728,2.801c1.705-0.521,1.925-2.174,1.834-3.367
		C32.059,18.433,27.894,17.096,27.711,21.802z"/>
</g>
</svg>
