<?xml version="1.0" encoding="utf-8"?>
<!-- Generator: Adobe Illustrator 16.0.0, SVG Export Plug-In . SVG Version: 6.00 Build 0)  -->
<!DOCTYPE svg PUBLIC "-//W3C//DTD SVG 1.1//EN" "http://www.w3.org/Graphics/SVG/1.1/DTD/svg11.dtd">
<svg version="1.1" xmlns="http://www.w3.org/2000/svg" xmlns:xlink="http://www.w3.org/1999/xlink" x="0px" y="0px" width="43.25px"
	 height="50.625px" viewBox="0 0 43.25 50.625" enable-background="new 0 0 43.25 50.625" xml:space="preserve">
<g id="_x34_783_col_1_xA0_Image_1_" display="none">
</g>
<g id="Calque_2">
	<g>
		<path fill="#9E7475" stroke="#000000" stroke-miterlimit="10" d="M21.792,49.819c4.667-4.334,20.667-21.333,20.667-24.666
			s-10.667-14-20.667-24.334c-10,10.334-20.667,21.001-20.667,24.334S17.125,45.485,21.792,49.819z"/>
		<path fill="#960F0F" d="M21.792,9.049c1.021,0,13.754,12.438,13.754,15.938S22.813,40.924,21.792,40.924
			S8.038,28.486,8.038,24.986S20.771,9.049,21.792,9.049z"/>
		<path fill="#DE8D2E" d="M7.958,21.487c0,0,3.5,2.498,3.5,3.832s-2.667,4.335-3.5,4.168s-3.5-3.169-3.333-4.168
			S7.958,21.487,7.958,21.487z"/>
		<path fill="#DE8D2E" d="M25.795,9.474c0,0-2.498,3.5-3.832,3.5s-4.335-2.667-4.168-3.5s3.169-3.501,4.168-3.333
			C22.962,6.307,25.795,9.474,25.795,9.474z"/>
		<path fill="#DE8D2E" d="M25.795,41.065c0,0-2.498-3.5-3.832-3.5s-4.335,2.667-4.168,3.5s3.169,3.501,4.168,3.333
			C22.962,44.232,25.795,41.065,25.795,41.065z"/>
		<path fill="#DE8D2E" d="M35.419,21.487c0,0-3.5,2.498-3.5,3.832s2.667,4.335,3.5,4.168s3.5-3.169,3.333-4.168
			S35.419,21.487,35.419,21.487z"/>
		<path d="M21.688,20.317c0,0,5.091,3.228,5.091,4.952c0,1.724-4.014,5.602-5.091,5.387c-1.077-0.217-5.091-4.096-4.875-5.387
			S21.688,20.317,21.688,20.317z"/>
	</g>
</g>
</svg>
